<svg preserveAspectRatio="none" width="100%" height="100%" overflow="visible" style="display: block;" viewBox="0 0 276 276" fill="none" xmlns="http://www.w3.org/2000/svg">
<g id="perplexity-icon">
<path id="Vector" d="M221.04 10V87.568H250V197.947H218.693V266L143.632 199.931V265.477H131.995V199.856L56.848 266V197.04H26V86.672H56.7627V10L131.995 79.2693V12.0267H143.621V81.2533L221.04 10ZM143.632 106.469V184.539L207.056 240.368V164.027L143.632 106.469ZM131.909 105.616L68.4853 163.195V240.368L131.909 184.539V105.627V105.616ZM218.693 186.469H238.363V99.056H153.573L218.693 158.149V186.469ZM122.885 98.1493H37.6267V185.563H56.8267V158.085L122.875 98.1387L122.885 98.1493ZM68.4 36.4107V86.6507H122.96L68.4 36.4107ZM209.403 36.4107L154.843 86.6507H209.403V36.4107Z" fill="var(--fill-0, #22B8CD)"/>
</g>
</svg>
